<svg id="Layer_1" data-name="Layer 1" xmlns="http://www.w3.org/2000/svg" xmlns:xlink="http://www.w3.org/1999/xlink" viewBox="0 0 1432.1 1123.5"><defs><style>.cls-1,.cls-5{fill:#fff;}.cls-1,.cls-3,.cls-4{stroke:#000;}.cls-1,.cls-2,.cls-3{stroke-miterlimit:10;}.cls-2,.cls-3,.cls-4{fill:none;}.cls-2{stroke:url(#linear-gradient);}.cls-4{stroke-linecap:round;stroke-linejoin:round;stroke-width:2px;}.cls-6{fill:#ef6d14;}.cls-7{font-size:137.11px;font-family:AvenirNextCondensed-Regular, Avenir Next Condensed;}.cls-8{letter-spacing:-0.04em;}.cls-9{letter-spacing:-0.03em;}.cls-10{letter-spacing:-0.02em;}.cls-11{font-size:12px;font-family:MyriadPro-Regular, Myriad Pro;}.cls-12{letter-spacing:-0.01em;}</style><linearGradient id="linear-gradient" x1="221.33" y1="375.79" x2="221.33" y2="375.79" gradientTransform="translate(1.09 -1.28) rotate(0.12)" gradientUnits="userSpaceOnUse"><stop offset="0" stop-color="#fff"/><stop offset="1"/></linearGradient></defs><title>logo_passerotta</title><circle class="cls-1" cx="504.15" cy="504.15" r="503.65"/><path class="cls-2" d="M221.6,375" transform="translate(-127.7 -6.5)"/><circle class="cls-3" cx="93.95" cy="346.46" r="35.53"/><path class="cls-3" d="M219.13,349.74s-14-17.51-16.76-17.52S193,340.46,193,345s7.93,6.41,23.59,8Z" transform="translate(-127.7 -6.5)"/><path class="cls-3" d="M215.86,352.86s-22.17-3.49-24.19-1.66-1.34,12.38,1.68,15.71,10.18-.61,22.82-10Z" transform="translate(-127.7 -6.5)"/><path class="cls-3" d="M222.49,347.13s3.87-22.1,2.08-24.15-12.35-1.55-15.73,1.41.43,10.19,9.59,23Z" transform="translate(-127.7 -6.5)"/><path class="cls-3" d="M216.42,356.2s-19.82,10.53-20.33,13.2,6.36,10.7,10.77,11.55,7.78-6.6,12.25-21.7Z" transform="translate(-127.7 -6.5)"/><path class="cls-3" d="M224.79,349.59s18-13.47,18-16.19-7.94-9.59-12.43-9.74-6.66,7.72-8.74,23.33Z" transform="translate(-127.7 -6.5)"/><path class="cls-3" d="M227.79,355.43s22.38-1.62,23.93-3.86-1.5-12.36-5.2-14.92-9.77,2.9-20,14.9Z" transform="translate(-127.7 -6.5)"/><path class="cls-3" d="M225.44,358.68s17.5,14.05,20.16,13.47,7.32-10.07,6.35-14.46-9.13-4.54-24.76-2.69Z" transform="translate(-127.7 -6.5)"/><path class="cls-3" d="M220,359.35s-8.64,20.71-7.34,23.1,11.7,4.24,15.65,2.09,1.83-10-4.29-24.53Z" transform="translate(-127.7 -6.5)"/><path class="cls-4" d="M311.32,324.88c-1.13,5.2.58,10.2,1.07,15.28.78,8.19,1.14,16.44,2.28,24.58,1.41,10.13,2.79,20.29,5.42,30.21,1.68,6.32,3.19,12.68,4.84,19a33.35,33.35,0,0,0,1.87,5.94c2.39,5,2.93,10.24,3,15.68a33.84,33.84,0,0,0,3.7,15.25c5.62,11,11.6,21.9,17.35,32.87a54.67,54.67,0,0,1,2.61,6.33c4.69,12.52,12.74,23.13,19.8,34.25,8,12.63,16.31,25.23,25.71,36.86,8.8,10.89,18.19,21.53,29.24,30.31,9.5,7.56,18.93,15.22,28.9,22.2,8,5.6,15.46,11.9,23.42,17.58,5.74,4.11,12.33,6.43,18.32,10a168.43,168.43,0,0,0,15.26,8.21c9,4.16,18.6,6.78,27.87,10.25,9.91,3.71,20.17,5.44,30.53,7.25a186.41,186.41,0,0,0,28.72,2.39c9.55.16,19.13-.42,28.68-1,6.35-.39,12.7-.86,19-1.69,7.12-.93,14.18-2.11,21.25-3.33,5.35-.93,10.76-1.46,16-3,11.05-3.18,22.05-6.5,32.43-11.53,5.23-2.53,11.1-3,16.4-5.19a211.29,211.29,0,0,0,23.86-12.25c6.24-3.6,11.75-8.25,17.24-12.9a5.51,5.51,0,0,1,5.92-1.18c9.49,4.09,19.66,6.07,29.41,9.39,5.83,2,11.63,4.11,17.51,6,5.28,1.67,10.69,2.94,16,4.56,17.79,5.43,36,9.48,53.62,15.38,11.91,4,24.08,7,36.13,10.49,13.4,3.87,27.26,5.94,40.6,10.12,12.2,3.83,24.71,6.46,37.17,9.3,4.74,1.08,9.51,2.95,14.24,4.53,4,1.35,8.45,1.56,12.64,2.7,7.64,2.06,15.34,4,23.09,5.59,2.48.51,5.2-.15,7.81-.25,3.41-.14,6.71-.85,10.12,1,3,1.66,5.18.12,6.3-3.4.28-.89-7-8.53-5.58-8.78" transform="translate(-127.7 -6.5)"/><path class="cls-4" d="M309.19,277.19c2.67-3.94,2.18-8.79,4-13.1a91.92,91.92,0,0,1,30-38.29c9.81-7.45,20-14,32.11-17a138.43,138.43,0,0,1,62.63-1.46c11.69,2.44,23.29,5.22,33.38,11.52,12.34,7.71,24.78,15.4,35.12,26,6.91,7,12.28,15,17.19,23.48,4.81,8.34,10.34,16.37,19.15,21.41s15.92,12.38,23.8,18.67c14,11.13,28.26,21.77,42.76,32.16,8.8,6.31,17.64,12.55,26.17,19.26,11.69,9.21,23.4,18.42,35.38,27.21,12.87,9.45,25.24,19.62,39.18,27.67a163,163,0,0,1,17.36,12c6.34,4.87,13,9.35,19.59,14,.87.61,1.78,1.2,2.6,1.87,11.09,9.11,24,15.28,36.45,22.09a66,66,0,0,1,9.29,6A306.54,306.54,0,0,0,831,495.36c7.23,4.21,13.59,10,20.57,14.76a2.93,2.93,0,0,1,1.11,4.1" transform="translate(-127.7 -6.5)"/><path class="cls-4" d="M834,524.61c.92,3.29,3.55,4.78,6.29,6.39,10,5.87,19.75,12.13,29.82,17.85,13.12,7.46,25.62,15.9,38.94,23.06a179.26,179.26,0,0,1,22.13,14.28c6.34,4.73,13.33,8.56,20,12.82,12.28,7.84,24.67,15.53,36.8,23.59a484.83,484.83,0,0,0,45.75,26.62c13.56,7,26,15.94,38,25.26a43.85,43.85,0,0,1,9.27,9.38c2,2.88,5.06,8.25,2.61,10.82-1,1-4.68-1.24-5.26,0" transform="translate(-127.7 -6.5)"/><path class="cls-4" d="M489.59,416.18c4,1.16,5.77,4.41,7,7.86,4.55,12.65,9.65,25,15.2,37.29a80.15,80.15,0,0,0,10.44,16.4c9.61,12.21,21.42,22,34.25,30.57,7.71,5.14,16.61,7.78,25.25,11,14.46,5.36,29.31,9.48,44,14,12.65,3.88,25.57,7,39,7.55a146.07,146.07,0,0,1,16.78,1.26,13.21,13.21,0,0,0,8.2-1.38c2-1.05,4.07-.71,6.34-.57,7.55.47,14.69,3,22.32,3.5,9.84.59,19.64,0,29.45.5,8,.42,15.73-1.78,23.45-3.4,7.08-1.49,14.35-2,21.28-4.27a80.57,80.57,0,0,1,13-3,3.38,3.38,0,0,0,1.84-.75c4.93-5.12,11.83-4.59,17.94-6.2,6.76-1.77,13.09-4.69,19.71-6.85a14.44,14.44,0,0,0,6.38-4.71" transform="translate(-127.7 -6.5)"/><path class="cls-4" d="M557.78,413c.05,10.16,5.39,17.92,11.48,25.37,8.2,10,17.64,18.87,26.84,27.92,6.4,6.29,13.78,11.52,20.44,17.58a293.73,293.73,0,0,0,39.06,29.86c9.4,6,19.28,11.33,29,16.89,3.63,2.08,6.55,4.65,7.42,9" transform="translate(-127.7 -6.5)"/><path class="cls-4" d="M623.53,416.84c4.31,4.84,6.24,11.26,10.61,16C641.35,440.76,650,447,658.68,453a172.11,172.11,0,0,0,16,10.4c8.88,4.82,18.13,8.95,27.1,13.59,10.51,5.45,21.43,10.06,31.7,16,4,2.3,8.54,3.54,12.58,5.74,9.21,5,19.5,7.17,29.07,11.19,2.1.88,4.45,1.41,6.28,2.69,4.92,3.41,10.72,4.67,16.08,7,2.83,1.23,6,1.59,8.88,2.76s5.55,2.73,6.72,5.91" transform="translate(-127.7 -6.5)"/><path class="cls-4" d="M421.46,346.85c-.48.83-1.66,1.85-1.08,2.54,2.55,3.07.26,5.33-1.28,7.47A302.22,302.22,0,0,1,370.34,410c-8.65,7.38-18.12,13.73-27.59,20.09C339,432.6,335,433.78,330.46,433" transform="translate(-127.7 -6.5)"/><path class="cls-4" d="M257,301.89c2.11-3.3,5.57-4.63,9.14-6.18,12.85-5.63,25.55-11.56,38.23-17.52a11.13,11.13,0,0,1,4.62-1c2-.05,2.69,1,2.24,2.53-1.63,5.27-.07,10.58-.42,15.84-.38,5.54.23,11,.41,16.55a11.65,11.65,0,0,1-1.56,6.82c1,3,3.33,4.15,6.48,4.36,4.28.28,7.38,3.09,10.61,5.15a84.91,84.91,0,0,0,34.78,12.68c7.79,1.07,15.44,3.1,23.31,3.86,9.26.9,18.52,1.88,27.87,1.56,2.92-.1,5.88-.37,8.78.34" transform="translate(-127.7 -6.5)"/><path class="cls-4" d="M257,301.89c4.69.65-1,1,3.44,3.32a128.6,128.6,0,0,0,25.21,10.7c4.27,1.21,8.49,2.62,12.66,4.13,3.3,1.19,6.67,1.1,10.07,1.11" transform="translate(-127.7 -6.5)"/><path d="M309.19,277.19" transform="translate(-127.7 -6.5)"/><circle cx="264.15" cy="251.54" r="19.33"/><circle class="cls-5" cx="268.96" cy="241.32" r="3.53"/><path class="cls-4" d="M531.65,280.17s-173,77.15-219.53,39.74" transform="translate(-127.7 -6.5)"/><path class="cls-4" d="M457.07,613.65s-35.9,26.87-27.14,64C429.93,677.67,425.67,637.91,457.07,613.65Z" transform="translate(-127.7 -6.5)"/><path class="cls-4" d="M514.07,649.41s-31.59,25.37-23.89,60.43C490.18,709.84,486.44,672.31,514.07,649.41Z" transform="translate(-127.7 -6.5)"/><path class="cls-4" d="M429.93,677.67s-22.64-3.23-25.32,15.8" transform="translate(-127.7 -6.5)"/><path class="cls-4" d="M428.74,677.81s-21.17,8.66-13.86,26.43" transform="translate(-127.7 -6.5)"/><path class="cls-4" d="M430.25,677.42s-12.88,17.12-1.47,26.68" transform="translate(-127.7 -6.5)"/><path class="cls-4" d="M490.11,710s-22.65-3.23-25.32,15.8" transform="translate(-127.7 -6.5)"/><path class="cls-4" d="M488.92,710.14s-21.17,8.66-13.86,26.44" transform="translate(-127.7 -6.5)"/><path class="cls-4" d="M490.43,709.76s-12.88,17.12-1.47,26.68" transform="translate(-127.7 -6.5)"/><path class="cls-6" d="M292.18,355.31S305.86,437.54,308,456.09s-2.21,56.73-57.16,51.79.2-149.71.2-149.71Z" transform="translate(-127.7 -6.5)"/><path class="cls-6" d="M222.43,357c-.33,1.93-.9,5.3-1.64,9.69C221.72,363.64,222.66,360.47,222.43,357Z" transform="translate(-127.7 -6.5)"/><path class="cls-6" d="M263.82,358.2l-41.08-3-.31,1.81c.23,3.5-.71,6.67-1.64,9.69-3.94,23.28-12.62,75-14.36,89.21-2.26,18.54,2,56.73,56.94,52S263.82,358.2,263.82,358.2Z" transform="translate(-127.7 -6.5)"/><line class="cls-4" x1="125.31" y1="418.19" x2="154.68" y2="309.95"/><path d="M254.4,507.79l-.13,121.1S235,627.51,210,640.81l85.86.19s-17.43-13.68-38.12-12l-.37-121.51Z" transform="translate(-127.7 -6.5)"/><text class="cls-7" transform="translate(201.84 856.53) rotate(0.12)"><tspan class="cls-8">P</tspan><tspan x="57.31" y="0">ASSER</tspan><tspan class="cls-9" x="362.52" y="0">O</tspan><tspan x="436.56" y="0">T</tspan><tspan class="cls-10" x="483.45" y="0">TA</tspan></text><text class="cls-11" transform="translate(1379.86 1120.18)">passe<tspan class="cls-12" x="28.13" y="0">r</tspan><tspan x="31.93" y="0">otta</tspan></text><text class="cls-11" transform="translate(1379.3 1120.5)">passe<tspan class="cls-12" x="28.13" y="0">r</tspan><tspan x="31.93" y="0">otta</tspan></text></svg>
