<svg id="Layer_1" data-name="Layer 1" xmlns="http://www.w3.org/2000/svg" xmlns:xlink="http://www.w3.org/1999/xlink" viewBox="0 0 1312.17 968.01"><defs><style>.cls-1,.cls-5{fill:#fff;}.cls-1,.cls-3,.cls-4{stroke:#000;}.cls-1,.cls-2,.cls-3{stroke-miterlimit:10;}.cls-2,.cls-3,.cls-4{fill:none;}.cls-2{stroke:url(#linear-gradient);}.cls-4{stroke-linecap:round;stroke-linejoin:round;stroke-width:2px;}.cls-6{fill:#ef6d14;}.cls-7{font-size:92px;font-family:AvenirNextCondensed-Regular, Avenir Next Condensed;}.cls-8{letter-spacing:-0.04em;}.cls-9{letter-spacing:-0.03em;}.cls-10{letter-spacing:-0.02em;}.cls-11{font-size:12px;font-family:MyriadPro-Regular, Myriad Pro;}.cls-12{letter-spacing:-0.01em;}</style><linearGradient id="linear-gradient" x1="310.6" y1="410" x2="310.6" y2="410" gradientUnits="userSpaceOnUse"><stop offset="0" stop-color="#fff"/><stop offset="1"/></linearGradient></defs><title>passerotta</title><circle class="cls-1" cx="338.44" cy="338.44" r="337.94"/><path class="cls-2" d="M310.6,410" transform="translate(-247.63 -161.99)"/><circle class="cls-3" cx="62.97" cy="233.23" r="23.84"/><path class="cls-3" d="M308.91,393.06s-9.45-11.73-11.27-11.73-6.25,5.55-6.25,8.56,5.33,4.29,15.84,5.33Z" transform="translate(-247.63 -161.99)"/><path class="cls-3" d="M306.72,395.17s-14.88-2.31-16.23-1.08-.89,8.3,1.15,10.53,6.82-.42,15.29-6.73Z" transform="translate(-247.63 -161.99)"/><path class="cls-3" d="M311.16,391.31s2.57-14.84,1.36-16.21-8.29-1-10.55,1,.3,6.83,6.46,15.41Z" transform="translate(-247.63 -161.99)"/><path class="cls-3" d="M307.1,397.4s-13.28,7.1-13.62,8.89,4.28,7.17,7.24,7.73,5.21-4.44,8.19-14.57Z" transform="translate(-247.63 -161.99)"/><path class="cls-3" d="M312.71,393s12-9.07,12.08-10.9-5.34-6.41-8.36-6.51-4.45,5.19-5.83,15.66Z" transform="translate(-247.63 -161.99)"/><path class="cls-3" d="M314.73,396.87s15-1.12,16-2.63-1-8.29-3.51-10-6.56,2-13.37,10Z" transform="translate(-247.63 -161.99)"/><path class="cls-3" d="M313.16,399.06s11.76,9.4,13.54,9,4.9-6.77,4.24-9.71-6.13-3-16.62-1.76Z" transform="translate(-247.63 -161.99)"/><path class="cls-3" d="M309.5,399.51s-5.77,13.91-4.89,15.51,7.86,2.83,10.5,1.38,1.21-6.73-2.91-16.45Z" transform="translate(-247.63 -161.99)"/><path class="cls-4" d="M370.73,376.25c-.75,3.49.4,6.84.74,10.25.54,5.5.79,11,1.56,16.49a169.73,169.73,0,0,0,3.69,20.26c1.13,4.24,2.16,8.5,3.27,12.75a21.81,21.81,0,0,0,1.27,4,24,24,0,0,1,2,10.51,22.8,22.8,0,0,0,2.51,10.23c3.79,7.4,7.81,14.68,11.69,22a37.47,37.47,0,0,1,1.76,4.24c3.17,8.39,8.58,15.5,13.34,22.95a267.18,267.18,0,0,0,17.3,24.7c5.92,7.29,12.24,14.42,19.66,20.3,6.39,5,12.73,10.18,19.43,14.85,5.37,3.74,10.39,8,15.74,11.76,3.86,2.74,8.28,4.29,12.31,6.66a110.79,110.79,0,0,0,10.25,5.49c6,2.77,12.49,4.52,18.71,6.83,6.66,2.48,13.55,3.63,20.5,4.82a122.54,122.54,0,0,0,19.27,1.56c6.41.1,12.84-.31,19.25-.71,4.25-.27,8.51-.59,12.76-1.16,4.77-.63,9.51-1.43,14.25-2.26a100.55,100.55,0,0,0,10.74-2c7.41-2.15,14.79-4.39,21.74-7.78,3.51-1.71,7.45-2,11-3.51a141.32,141.32,0,0,0,16-8.26A79.24,79.24,0,0,0,683,572.54a3.72,3.72,0,0,1,4-.8c6.38,2.74,13.21,4,19.75,6.26,3.92,1.33,7.81,2.74,11.76,4,3.55,1.11,7.18,1.95,10.74,3,11.94,3.62,24.15,6.31,36,10.25,8,2.65,16.17,4.66,24.25,7,9,2.58,18.3,3.94,27.26,6.73,8.19,2.55,16.59,4.3,25,6.18,3.18.72,6.38,2,9.56,3,2.72.91,5.67,1,8.48,1.79,5.13,1.38,10.3,2.65,15.5,3.72,1.67.35,3.49-.1,5.24-.18,2.29-.09,4.5-.58,6.79.67,2.05,1.11,3.48.07,4.22-2.29.19-.6-4.69-5.71-3.75-5.89" transform="translate(-247.63 -161.99)"/><path class="cls-4" d="M369.23,344.25c1.79-2.64,1.45-5.9,2.65-8.79A61.71,61.71,0,0,1,392,309.72c6.57-5,13.38-9.43,21.52-11.48a93,93,0,0,1,42-1.07c7.85,1.62,15.63,3.47,22.42,7.68,8.28,5.16,16.64,10.3,23.6,17.36a76.55,76.55,0,0,1,11.56,15.73c3.24,5.59,7,11,12.88,14.34s10.7,8.28,16,12.49c9.38,7.45,19,14.57,28.74,21.52,5.91,4.22,11.86,8.39,17.59,12.89,7.85,6.15,15.73,12.32,23.78,18.2,8.65,6.32,17,13.13,26.33,18.51a110,110,0,0,1,11.66,8c4.27,3.26,8.76,6.26,13.17,9.36.59.41,1.19.8,1.75,1.25,7.45,6.1,16.1,10.22,24.49,14.77a44.77,44.77,0,0,1,6.24,4,204.24,204.24,0,0,0,23.95,16.6c4.85,2.81,9.13,6.68,13.82,9.87a2,2,0,0,1,.75,2.75" transform="translate(-247.63 -161.99)"/><path class="cls-4" d="M721.73,509.5c.63,2.21,2.39,3.2,4.23,4.28,6.71,3.92,13.27,8.11,20,11.94,8.81,5,17.21,10.63,26.16,15.41A119.49,119.49,0,0,1,787,550.68c4.26,3.16,9,5.72,13.45,8.57,8.25,5.24,16.57,10.39,24.73,15.78a327,327,0,0,0,30.73,17.79c9.11,4.68,17.44,10.66,25.57,16.89a29.67,29.67,0,0,1,6.23,6.28c1.37,1.94,3.41,5.54,1.76,7.26-.64.68-3.13-.83-3.52,0" transform="translate(-247.63 -161.99)"/><path class="cls-4" d="M490.48,437.25c2.66.78,3.88,2.95,4.72,5.26,3.06,8.48,6.51,16.8,10.25,25a53.76,53.76,0,0,0,7,11c6.47,8.18,14.41,14.73,23,20.46,5.17,3.44,11.15,5.2,17,7.34,9.71,3.57,19.68,6.31,29.56,9.32,8.49,2.59,17.17,4.69,26.21,5a99.48,99.48,0,0,1,11.26.82,8.87,8.87,0,0,0,5.5-.93c1.34-.71,2.72-.49,4.25-.39,5.07.3,9.86,2,15,2.31,6.6.38,13.18,0,19.76.29,5.38.27,10.56-1.21,15.73-2.32,4.75-1,9.63-1.36,14.27-2.89a54.46,54.46,0,0,1,8.75-2A2.24,2.24,0,0,0,704,515c3.3-3.44,7.93-3.1,12-4.18,4.54-1.2,8.78-3.17,13.21-4.63a9.69,9.69,0,0,0,4.28-3.17" transform="translate(-247.63 -161.99)"/><path class="cls-4" d="M536.23,435c0,6.82,3.64,12,7.74,17,5.52,6.71,11.86,12.64,18,18.7,4.31,4.21,9.27,7.7,13.74,11.76a196.36,196.36,0,0,0,26.25,20c6.32,4,13,7.58,19.48,11.3,2.44,1.39,4.4,3.11,5,6" transform="translate(-247.63 -161.99)"/><path class="cls-4" d="M580.35,437.5c2.9,3.24,4.21,7.54,7.14,10.74,4.85,5.28,10.65,9.44,16.5,13.49a116.91,116.91,0,0,0,10.77,7c6,3.22,12.18,6,18.21,9.08,7.06,3.64,14.39,6.71,21.29,10.68,2.67,1.54,5.74,2.37,8.45,3.84,6.19,3.35,13.09,4.77,19.52,7.46a22.68,22.68,0,0,1,4.22,1.79c3.31,2.29,7.2,3.12,10.8,4.67,1.9.81,4,1.05,6,1.83s3.73,1.83,4.52,4" transform="translate(-247.63 -161.99)"/><path class="cls-4" d="M444.67,390.83c-.32.55-1.12,1.24-.73,1.71,1.72,2,.19,3.57-.85,5a202.64,202.64,0,0,1-32.63,35.71A200.37,200.37,0,0,1,392,446.78a10.84,10.84,0,0,1-8.24,2" transform="translate(-247.63 -161.99)"/><path class="cls-4" d="M334.23,360.9c1.41-2.22,3.73-3.11,6.12-4.16C349,353,357.48,349,366,344.93a7.36,7.36,0,0,1,3.1-.69c1.33-.05,1.81.7,1.5,1.69-1.08,3.54,0,7.1-.26,10.63a108.12,108.12,0,0,0,.31,11.1,7.91,7.91,0,0,1-1,4.58c.68,2,2.24,2.78,4.35,2.91,2.88.18,5,2.07,7.13,3.45a57.07,57.07,0,0,0,23.35,8.45c5.23.71,10.37,2.06,15.65,2.56a142.45,142.45,0,0,0,18.7,1,21.62,21.62,0,0,1,5.9.22" transform="translate(-247.63 -161.99)"/><path class="cls-4" d="M334.23,360.9c3.15.43-.64.67,2.31,2.23a86.39,86.39,0,0,0,16.93,7.14c2.87.81,5.7,1.75,8.5,2.75a19.37,19.37,0,0,0,6.76.73" transform="translate(-247.63 -161.99)"/><path d="M369.23,344.25" transform="translate(-247.63 -161.99)"/><circle cx="177.04" cy="169.3" r="12.97"/><circle class="cls-5" cx="180.25" cy="162.43" r="2.37"/><path class="cls-4" d="M518.51,345.93s-116,52-147.25,27" transform="translate(-247.63 -161.99)"/><path class="cls-4" d="M469,569.8s-24.05,18.08-18.12,43C450.83,612.79,447.91,586.12,469,569.8Z" transform="translate(-247.63 -161.99)"/><path class="cls-4" d="M507.25,593.71s-21.16,17.07-15.94,40.58C491.31,634.29,488.74,609.12,507.25,593.71Z" transform="translate(-247.63 -161.99)"/><path class="cls-4" d="M450.83,612.79s-15.2-2.13-17,10.64" transform="translate(-247.63 -161.99)"/><path class="cls-4" d="M450,612.89s-14.19,5.84-9.25,17.75" transform="translate(-247.63 -161.99)"/><path class="cls-4" d="M451.05,612.62s-8.62,11.51-.95,17.91" transform="translate(-247.63 -161.99)"/><path class="cls-4" d="M491.26,634.4s-15.2-2.13-17,10.64" transform="translate(-247.63 -161.99)"/><path class="cls-4" d="M490.46,634.5s-14.19,5.84-9.26,17.75" transform="translate(-247.63 -161.99)"/><path class="cls-4" d="M491.47,634.23s-8.62,11.51-.94,17.91" transform="translate(-247.63 -161.99)"/><path class="cls-6" d="M357.93,396.7s9.3,55.15,10.79,67.59-1.4,38.07-38.27,34.84-.09-100.45-.09-100.45Z" transform="translate(-247.63 -161.99)"/><path class="cls-6" d="M311.13,397.91c-.21,1.3-.59,3.56-1.08,6.51A17.81,17.81,0,0,0,311.13,397.91Z" transform="translate(-247.63 -161.99)"/><path class="cls-6" d="M338.91,398.68l-27.57-2s-.07.43-.21,1.21a17.81,17.81,0,0,1-1.08,6.51c-2.61,15.62-8.36,50.32-9.51,59.87-1.49,12.45,1.4,38.07,38.28,34.84S338.91,398.68,338.91,398.68Z" transform="translate(-247.63 -161.99)"/><line class="cls-4" x1="84.12" y1="281.32" x2="103.67" y2="208.65"/><path d="M332.8,499.07l.09,81.25s-12.91-.9-29.69,8.06h57.61s-11.71-9.15-25.59-8l-.43-81.53Z" transform="translate(-247.63 -161.99)"/><text class="cls-7" transform="translate(136.1 575.31)"><tspan class="cls-8">P</tspan><tspan x="38.46" y="0">ASSER</tspan><tspan class="cls-9" x="243.25" y="0">O</tspan><tspan x="292.93" y="0">T</tspan><tspan class="cls-10" x="324.39" y="0">TA</tspan></text><text class="cls-11" transform="translate(1259.93 964.7)">passe<tspan class="cls-12" x="28.13" y="0">r</tspan><tspan x="31.93" y="0">otta</tspan></text><text class="cls-11" transform="translate(1259.37 965.01)">passe<tspan class="cls-12" x="28.13" y="0">r</tspan><tspan x="31.93" y="0">otta</tspan></text></svg>
